<mxfile host="Electron" modified="2024-05-24T08:27:35.621Z" agent="Mozilla/5.0 (Macintosh; Intel Mac OS X 10_15_7) AppleWebKit/537.36 (KHTML, like Gecko) draw.io/24.4.0 Chrome/120.0.6099.109 Electron/28.1.0 Safari/537.36" etag="c_3Wqy5YSTLpHIOJchdl" version="24.4.0" type="device">
  <diagram name="Page-1" id="Page-1">
    <mxGraphModel dx="977" dy="743" grid="1" gridSize="10" guides="1" tooltips="1" connect="1" arrows="1" fold="1" page="1" pageScale="1" pageWidth="827" pageHeight="1169" math="0" shadow="0">
      <root>
        <mxCell id="0" />
        <mxCell id="1" value="Соединительная линия" parent="0" />
        <mxCell id="2" style="vsdxID=1;fillColor=none;gradientColor=none;shape=stencil(UzV2Ls5ILEhVNTIoLinKz04tz0wpyVA1dlE1MsrMy0gtyiwBslSNXVWNndPyi1LTi/JL81Ig/IJEkEoQKze/DGRCBUSfAUiHkUElMs8NojAnMw+nQkMDPEphkmQpJtoJKAqBDIQP0zJzciABhCyPHiJAIUhoGrsCAA==);strokeColor=#000000;strokeWidth=4;points=[];labelBackgroundColor=none;rounded=0;html=1;whiteSpace=wrap;" parent="1" vertex="1">
          <mxGeometry x="80" y="28" width="728" height="1133" as="geometry" />
        </mxCell>
        <mxCell id="3" style="vsdxID=3;fillColor=#FFFFFF;gradientColor=none;shape=stencil(fY9LDoAgDERP0z3SI/i5BwkoRAWC+Lu9kMZojLqbad9MWsBy0sIr4GyKwfVqNTJqwAo4N1arYGJSgDVg2bqguuBmK8l7kcmsRrfkho1yLCc428kVjHxD6GDsJ/oDni2vaBLXLfTGffe8O43oZ6wP);strokeColor=#000000;strokeWidth=3;points=[];labelBackgroundColor=none;rounded=0;html=1;whiteSpace=wrap;" parent="1" vertex="1">
          <mxGeometry x="80" y="941" width="728" height="219" as="geometry" />
        </mxCell>
        <mxCell id="34" style="vsdxID=4;edgeStyle=none;startArrow=none;endArrow=none;startSize=5;endSize=5;strokeWidth=3;strokeColor=#000000;spacingTop=0;spacingBottom=0;spacingLeft=0;spacingRight=0;verticalAlign=middle;html=1;labelBackgroundColor=none;rounded=0;entryX=0.595;entryY=1;entryDx=0;entryDy=0;entryPerimeter=0;exitX=1.001;exitY=0.995;exitDx=0;exitDy=0;exitPerimeter=0;" parent="1" source="18" target="22" edge="1">
          <mxGeometry relative="1" as="geometry">
            <Array as="points" />
            <mxPoint x="618" y="1152.62" as="sourcePoint" />
            <mxPoint x="618" y="1003.37" as="targetPoint" />
          </mxGeometry>
        </mxCell>
        <mxCell id="35" style="vsdxID=5;edgeStyle=none;startArrow=none;endArrow=none;startSize=5;endSize=5;strokeWidth=3;strokeColor=#000000;spacingTop=0;spacingBottom=0;spacingLeft=0;spacingRight=0;verticalAlign=middle;html=1;labelBackgroundColor=none;rounded=0;exitX=0;exitY=0.244;exitDx=0;exitDy=0;exitPerimeter=0;entryX=0.353;entryY=1;entryDx=0;entryDy=0;entryPerimeter=0;" parent="1" source="22" target="2" edge="1">
          <mxGeometry relative="1" as="geometry">
            <Array as="points" />
            <mxPoint x="338" y="978" as="sourcePoint" />
            <mxPoint x="338" y="1158" as="targetPoint" />
          </mxGeometry>
        </mxCell>
        <mxCell id="36" style="vsdxID=6;edgeStyle=none;startArrow=none;endArrow=none;startSize=5;endSize=5;strokeWidth=3;strokeColor=#000000;spacingTop=0;spacingBottom=0;spacingLeft=0;spacingRight=0;verticalAlign=middle;html=1;labelBackgroundColor=none;rounded=0;" parent="1" edge="1">
          <mxGeometry relative="1" as="geometry">
            <Array as="points" />
            <mxPoint x="298" y="940" as="sourcePoint" />
            <mxPoint x="298" y="1160" as="targetPoint" />
          </mxGeometry>
        </mxCell>
        <mxCell id="37" style="vsdxID=7;edgeStyle=none;startArrow=none;endArrow=none;startSize=5;endSize=5;strokeWidth=3;strokeColor=#000000;spacingTop=0;spacingBottom=0;spacingLeft=0;spacingRight=0;verticalAlign=middle;html=1;labelBackgroundColor=none;rounded=0;" parent="1" edge="1">
          <mxGeometry relative="1" as="geometry">
            <Array as="points" />
            <mxPoint x="253" y="940" as="sourcePoint" />
            <mxPoint x="253" y="1160" as="targetPoint" />
          </mxGeometry>
        </mxCell>
        <mxCell id="38" style="vsdxID=8;edgeStyle=none;startArrow=none;endArrow=none;startSize=5;endSize=5;strokeWidth=3;strokeColor=#000000;spacingTop=0;spacingBottom=0;spacingLeft=0;spacingRight=0;verticalAlign=middle;html=1;labelBackgroundColor=none;rounded=0;" parent="1" edge="1">
          <mxGeometry relative="1" as="geometry">
            <Array as="points" />
            <mxPoint x="147" y="940" as="sourcePoint" />
            <mxPoint x="147" y="1160" as="targetPoint" />
          </mxGeometry>
        </mxCell>
        <mxCell id="39" style="vsdxID=9;edgeStyle=none;startArrow=none;endArrow=none;startSize=5;endSize=5;strokeWidth=3;strokeColor=#000000;spacingTop=0;spacingBottom=0;spacingLeft=0;spacingRight=0;verticalAlign=middle;html=1;labelBackgroundColor=none;rounded=0;entryX=0.993;entryY=1.038;entryDx=0;entryDy=0;entryPerimeter=0;exitX=0.043;exitY=0.062;exitDx=0;exitDy=0;exitPerimeter=0;" parent="1" source="10" target="9" edge="1">
          <mxGeometry relative="1" as="geometry">
            <Array as="points" />
            <mxPoint x="107" y="978" as="sourcePoint" />
            <mxPoint x="107" y="1058" as="targetPoint" />
          </mxGeometry>
        </mxCell>
        <mxCell id="40" style="vsdxID=10;edgeStyle=none;startArrow=none;endArrow=none;startSize=5;endSize=5;strokeWidth=3;strokeColor=#000000;spacingTop=0;spacingBottom=0;spacingLeft=0;spacingRight=0;verticalAlign=middle;html=1;labelBackgroundColor=none;rounded=0;" parent="1" edge="1">
          <mxGeometry relative="1" as="geometry">
            <mxPoint as="offset" />
            <Array as="points" />
            <mxPoint x="80" y="1017" as="sourcePoint" />
            <mxPoint x="338" y="1017" as="targetPoint" />
          </mxGeometry>
        </mxCell>
        <mxCell id="41" style="vsdxID=11;edgeStyle=none;startArrow=none;endArrow=none;startSize=5;endSize=5;strokeWidth=3;strokeColor=#000000;spacingTop=0;spacingBottom=0;spacingLeft=0;spacingRight=0;verticalAlign=middle;html=1;labelBackgroundColor=none;rounded=0;" parent="1" edge="1">
          <mxGeometry relative="1" as="geometry">
            <mxPoint as="offset" />
            <Array as="points" />
            <mxPoint x="80" y="1036.5" as="sourcePoint" />
            <mxPoint x="338" y="1036.5" as="targetPoint" />
          </mxGeometry>
        </mxCell>
        <mxCell id="42" style="vsdxID=12;edgeStyle=none;startArrow=none;endArrow=none;startSize=5;endSize=5;strokeWidth=3;strokeColor=#000000;spacingTop=0;spacingBottom=0;spacingLeft=0;spacingRight=0;verticalAlign=middle;html=1;labelBackgroundColor=none;rounded=0;" parent="1" edge="1">
          <mxGeometry relative="1" as="geometry">
            <mxPoint as="offset" />
            <Array as="points" />
            <mxPoint x="338" y="1000" as="sourcePoint" />
            <mxPoint x="808" y="1000" as="targetPoint" />
          </mxGeometry>
        </mxCell>
        <mxCell id="43" style="vsdxID=14;edgeStyle=none;startArrow=none;endArrow=none;startSize=5;endSize=5;strokeWidth=3;strokeColor=#000000;spacingTop=0;spacingBottom=0;spacingLeft=0;spacingRight=0;verticalAlign=middle;html=1;labelBackgroundColor=none;rounded=0;exitX=1.001;exitY=0.488;exitDx=0;exitDy=0;exitPerimeter=0;" parent="1" source="18" edge="1">
          <mxGeometry relative="1" as="geometry">
            <Array as="points" />
            <mxPoint x="620" y="1078" as="sourcePoint" />
            <mxPoint x="808" y="1078" as="targetPoint" />
          </mxGeometry>
        </mxCell>
        <mxCell id="4" style="vsdxID=17;fillColor=#FFFFFF;gradientColor=none;shape=stencil(UzV2Ls5ILEhVNTIoLinKz04tz0wpyVA1dlE1MsrMy0gtyiwBslSNXVWNndPyi1LTi/JL81Ig/IJEkEoQKze/DGRCBUSfAUiHkUElMs8NojAnMw+nQkMDcpUCGQi3QLyBLIfubqAQxM/GrgA=);strokeColor=#000000;strokeWidth=3;points=[];labelBackgroundColor=none;rounded=0;html=1;whiteSpace=wrap;" parent="1" vertex="1">
          <mxGeometry x="675" y="999.5" width="1" height="80" as="geometry" />
        </mxCell>
        <mxCell id="44" style="vsdxID=18;edgeStyle=none;startArrow=none;endArrow=none;startSize=5;endSize=5;strokeWidth=3;strokeColor=#000000;spacingTop=0;spacingBottom=0;spacingLeft=0;spacingRight=0;verticalAlign=middle;html=1;labelBackgroundColor=none;rounded=0;exitX=0.842;exitY=1.006;exitDx=0;exitDy=0;exitPerimeter=0;" parent="1" source="22" edge="1">
          <mxGeometry relative="1" as="geometry">
            <Array as="points" />
            <mxPoint x="734.0000000000001" y="996.7599999999998" as="sourcePoint" />
            <mxPoint x="734.32" y="1077" as="targetPoint" />
          </mxGeometry>
        </mxCell>
        <mxCell id="45" value="&lt;div style=&quot;font-size: 1px&quot;&gt;&lt;/div&gt;" style="text;vsdxID=18;edgeStyle=none;startArrow=none;endArrow=none;startSize=5;endSize=5;strokeWidth=3;strokeColor=none;spacingTop=0;spacingBottom=0;spacingLeft=0;spacingRight=0;verticalAlign=middle;html=1;labelBackgroundColor=none;rounded=0;align=center;fillColor=none;gradientColor=none;whiteSpace=wrap;;html=1;;rotation=270" parent="44" vertex="1">
          <mxGeometry width="40" height="1" relative="1" as="geometry">
            <mxPoint x="-20" y="-0.5" as="offset" />
          </mxGeometry>
        </mxCell>
        <mxCell id="48" value="&lt;div style=&quot;font-size: 1px&quot;&gt;&lt;/div&gt;" style="vsdxID=22;edgeStyle=none;startArrow=none;endArrow=none;startSize=5;endSize=5;strokeColor=#000000;spacingTop=0;spacingBottom=0;spacingLeft=0;spacingRight=0;verticalAlign=middle;html=1;labelBackgroundColor=none;rounded=0;align=center;" parent="1" edge="1">
          <mxGeometry relative="1" as="geometry">
            <mxPoint as="offset" />
            <Array as="points" />
            <mxPoint x="80" y="1000" as="sourcePoint" />
            <mxPoint x="338" y="1000" as="targetPoint" />
          </mxGeometry>
        </mxCell>
        <mxCell id="49" style="vsdxID=23;edgeStyle=none;startArrow=none;endArrow=none;startSize=5;endSize=5;strokeColor=#000000;spacingTop=0;spacingBottom=0;spacingLeft=0;spacingRight=0;verticalAlign=middle;html=1;labelBackgroundColor=none;rounded=0;" parent="1" edge="1">
          <mxGeometry relative="1" as="geometry">
            <mxPoint as="offset" />
            <Array as="points" />
            <mxPoint x="80" y="1018" as="sourcePoint" />
            <mxPoint x="338" y="1018" as="targetPoint" />
          </mxGeometry>
        </mxCell>
        <mxCell id="50" style="vsdxID=25;edgeStyle=none;startArrow=none;endArrow=none;startSize=5;endSize=5;strokeColor=#000000;spacingTop=0;spacingBottom=0;spacingLeft=0;spacingRight=0;verticalAlign=middle;html=1;labelBackgroundColor=none;rounded=0;" parent="1" edge="1">
          <mxGeometry relative="1" as="geometry">
            <mxPoint as="offset" />
            <Array as="points" />
            <mxPoint x="80" y="1036.64" as="sourcePoint" />
            <mxPoint x="338" y="1036.64" as="targetPoint" />
          </mxGeometry>
        </mxCell>
        <mxCell id="51" style="vsdxID=26;edgeStyle=none;startArrow=none;endArrow=none;startSize=5;endSize=5;strokeColor=#000000;spacingTop=0;spacingBottom=0;spacingLeft=0;spacingRight=0;verticalAlign=middle;html=1;labelBackgroundColor=none;rounded=0;" parent="1" edge="1">
          <mxGeometry relative="1" as="geometry">
            <mxPoint as="offset" />
            <Array as="points" />
            <mxPoint x="80" y="1098" as="sourcePoint" />
            <mxPoint x="338" y="1098" as="targetPoint" />
          </mxGeometry>
        </mxCell>
        <mxCell id="52" style="vsdxID=27;edgeStyle=none;startArrow=none;endArrow=none;startSize=5;endSize=5;strokeColor=#000000;spacingTop=0;spacingBottom=0;spacingLeft=0;spacingRight=0;verticalAlign=middle;html=1;labelBackgroundColor=none;rounded=0;" parent="1" edge="1">
          <mxGeometry relative="1" as="geometry">
            <mxPoint as="offset" />
            <Array as="points" />
            <mxPoint x="80" y="1118" as="sourcePoint" />
            <mxPoint x="338" y="1118" as="targetPoint" />
          </mxGeometry>
        </mxCell>
        <mxCell id="53" style="vsdxID=28;edgeStyle=none;startArrow=none;endArrow=none;startSize=5;endSize=5;strokeColor=#000000;spacingTop=0;spacingBottom=0;spacingLeft=0;spacingRight=0;verticalAlign=middle;html=1;labelBackgroundColor=none;rounded=0;" parent="1" edge="1">
          <mxGeometry relative="1" as="geometry">
            <mxPoint as="offset" />
            <Array as="points" />
            <mxPoint x="80" y="1138" as="sourcePoint" />
            <mxPoint x="338" y="1138" as="targetPoint" />
          </mxGeometry>
        </mxCell>
        <mxCell id="5" value="&lt;div style=&quot;font-size: 1px&quot;&gt;&lt;font style=&quot;font-size: 14.11px; color: rgb(0, 0, 0); direction: ltr; letter-spacing: 0px; line-height: 120%; opacity: 1;&quot;&gt;&lt;i&gt;Разраб.&lt;br&gt;&lt;/i&gt;&lt;/font&gt;&lt;/div&gt;" style="verticalAlign=middle;align=left;vsdxID=29;fillColor=none;gradientColor=none;shape=stencil(nZBLDoAgDERP0z3SIyjew0SURgSD+Lu9kMZoXLhwN9O+tukAlrNpJg1SzDH4QW/URgNYgZTkjA4UkwJUgGXng+6DX1zLfmoymdXo17xh5zmRJ6Q42BWCfc2oJfdAr+Yv+AP9Cb7OJ3H/2JG1HNGz/84klThPVCc=);strokeColor=none;points=[];labelBackgroundColor=none;rounded=0;html=1;whiteSpace=wrap;fontFamily=GOST type B;spacingLeft=0;" parent="1" vertex="1">
          <mxGeometry x="80" y="1037" width="67" height="20" as="geometry" />
        </mxCell>
        <mxCell id="6" value="&lt;div style=&quot;font-size: 1px&quot;&gt;&lt;font style=&quot;font-size: 14.11px; color: rgb(0, 0, 0); direction: ltr; letter-spacing: 0px; line-height: 120%; opacity: 1;&quot;&gt;&lt;i&gt;Пров.&lt;br&gt;&lt;/i&gt;&lt;/font&gt;&lt;/div&gt;" style="verticalAlign=middle;align=left;vsdxID=30;fillColor=none;gradientColor=none;shape=stencil(nZBLDoAgDERP0z3SIyjew0SURgSD+Lu9kMZoXLhwN9O+tukAlrNpJg1SzDH4QW/URgNYgZTkjA4UkwJUgGXng+6DX1zLfmoymdXo17xh5zmRJ6Q42BWCfc2oJfdAr+Yv+AP9Cb7OJ3H/2JG1HNGz/84klThPVCc=);strokeColor=none;points=[];labelBackgroundColor=none;rounded=0;html=1;whiteSpace=wrap;fontFamily=GOST type B;spacingLeft=0;" parent="1" vertex="1">
          <mxGeometry x="82" y="1057" width="67" height="20" as="geometry" />
        </mxCell>
        <mxCell id="7" value="&lt;div style=&quot;font-size: 1px&quot;&gt;&lt;font style=&quot;font-size: 14.11px; color: rgb(0, 0, 0); direction: ltr; letter-spacing: 0px; line-height: 120%; opacity: 1;&quot;&gt;&lt;i&gt;Н.контр.&lt;br&gt;&lt;/i&gt;&lt;/font&gt;&lt;/div&gt;" style="verticalAlign=middle;align=left;vsdxID=32;fillColor=none;gradientColor=none;shape=stencil(nZBLDoAgDERP0z3SIyjew0SURgSD+Lu9kMZoXLhwN9O+tukAlrNpJg1SzDH4QW/URgNYgZTkjA4UkwJUgGXng+6DX1zLfmoymdXo17xh5zmRJ6Q42BWCfc2oJfdAr+Yv+AP9Cb7OJ3H/2JG1HNGz/84klThPVCc=);strokeColor=none;points=[];labelBackgroundColor=none;rounded=0;html=1;whiteSpace=wrap;fontFamily=GOST type B;spacingLeft=0;" parent="1" vertex="1">
          <mxGeometry x="82" y="1118" width="68" height="20" as="geometry" />
        </mxCell>
        <mxCell id="8" value="&lt;div style=&quot;font-size: 1px&quot;&gt;&lt;font style=&quot;font-size: 14.11px; color: rgb(0, 0, 0); direction: ltr; letter-spacing: 0px; line-height: 120%; opacity: 1;&quot;&gt;&lt;i&gt;Утв.&lt;br&gt;&lt;/i&gt;&lt;/font&gt;&lt;/div&gt;" style="verticalAlign=middle;align=left;vsdxID=33;fillColor=none;gradientColor=none;shape=stencil(nZBLDoAgDERP0z3SIyjew0SURgSD+Lu9kMZoXLhwN9O+tukAlrNpJg1SzDH4QW/URgNYgZTkjA4UkwJUgGXng+6DX1zLfmoymdXo17xh5zmRJ6Q42BWCfc2oJfdAr+Yv+AP9Cb7OJ3H/2JG1HNGz/84klThPVCc=);strokeColor=none;points=[];labelBackgroundColor=none;rounded=0;html=1;whiteSpace=wrap;fontFamily=GOST type B;spacingLeft=0;" parent="1" vertex="1">
          <mxGeometry x="82" y="1140" width="67" height="18" as="geometry" />
        </mxCell>
        <mxCell id="9" value="&lt;div style=&quot;font-size: 1px&quot;&gt;&lt;font style=&quot;font-size: 11.29px; color: rgb(0, 0, 0); direction: ltr; letter-spacing: 0px; line-height: 120%; opacity: 1;&quot;&gt;&lt;i&gt;Изм.&lt;br&gt;&lt;/i&gt;&lt;/font&gt;&lt;/div&gt;" style="verticalAlign=middle;align=center;vsdxID=34;fillColor=none;gradientColor=none;shape=stencil(nZBLDoAgDERP0z3SIyjew0SURgSD+Lu9kMZoXLhwN9O+tukAlrNpJg1SzDH4QW/URgNYgZTkjA4UkwJUgGXng+6DX1zLfmoymdXo17xh5zmRJ6Q42BWCfc2oJfdAr+Yv+AP9Cb7OJ3H/2JG1HNGz/84klThPVCc=);strokeColor=none;spacingTop=-3;spacingBottom=-3;spacingLeft=-3;spacingRight=-3;points=[];labelBackgroundColor=none;rounded=0;html=1;whiteSpace=wrap;fontFamily=GOST type B;" parent="1" vertex="1">
          <mxGeometry x="80" y="1016.5" width="27" height="20" as="geometry" />
        </mxCell>
        <mxCell id="10" value="&lt;div style=&quot;font-size: 1px&quot;&gt;&lt;font style=&quot;font-size: 11.29px; color: rgb(0, 0, 0); direction: ltr; letter-spacing: 0px; line-height: 120%; opacity: 1;&quot;&gt;&lt;i&gt;Лист&lt;br&gt;&lt;/i&gt;&lt;/font&gt;&lt;/div&gt;" style="verticalAlign=middle;align=center;vsdxID=35;fillColor=none;gradientColor=none;shape=stencil(nZBLDoAgDERP0z3SIyjew0SURgSD+Lu9kMZoXLhwN9O+tukAlrNpJg1SzDH4QW/URgNYgZTkjA4UkwJUgGXng+6DX1zLfmoymdXo17xh5zmRJ6Q42BWCfc2oJfdAr+Yv+AP9Cb7OJ3H/2JG1HNGz/84klThPVCc=);strokeColor=none;points=[];labelBackgroundColor=none;rounded=0;html=1;whiteSpace=wrap;fontFamily=GOST type B;" parent="1" vertex="1">
          <mxGeometry x="105" y="1017" width="44" height="19" as="geometry" />
        </mxCell>
        <mxCell id="11" value="&lt;div style=&quot;font-size: 1px&quot;&gt;&lt;font style=&quot;font-size: 11.29px; color: rgb(0, 0, 0); direction: ltr; letter-spacing: 0px; line-height: 120%; opacity: 1;&quot;&gt;&lt;i&gt;№ докум.&lt;br&gt;&lt;/i&gt;&lt;/font&gt;&lt;/div&gt;" style="verticalAlign=middle;align=center;vsdxID=36;fillColor=none;gradientColor=none;shape=stencil(nZBLDoAgDERP0z3SIyjew0SURgSD+Lu9kMZoXLhwN9O+tukAlrNpJg1SzDH4QW/URgNYgZTkjA4UkwJUgGXng+6DX1zLfmoymdXo17xh5zmRJ6Q42BWCfc2oJfdAr+Yv+AP9Cb7OJ3H/2JG1HNGz/84klThPVCc=);strokeColor=none;points=[];labelBackgroundColor=none;rounded=0;html=1;whiteSpace=wrap;fontFamily=GOST type B;" parent="1" vertex="1">
          <mxGeometry x="149" y="1015" width="91" height="23" as="geometry" />
        </mxCell>
        <mxCell id="12" value="&lt;div style=&quot;font-size: 1px&quot;&gt;&lt;font style=&quot;font-size: 11.29px; color: rgb(0, 0, 0); direction: ltr; letter-spacing: 0px; line-height: 120%; opacity: 1;&quot;&gt;&lt;i&gt;Подп.&lt;br&gt;&lt;/i&gt;&lt;/font&gt;&lt;/div&gt;" style="verticalAlign=middle;align=center;vsdxID=37;fillColor=none;gradientColor=none;shape=stencil(nZBLDoAgDERP0z3SIyjew0SURgSD+Lu9kMZoXLhwN9O+tukAlrNpJg1SzDH4QW/URgNYgZTkjA4UkwJUgGXng+6DX1zLfmoymdXo17xh5zmRJ6Q42BWCfc2oJfdAr+Yv+AP9Cb7OJ3H/2JG1HNGz/84klThPVCc=);strokeColor=none;points=[];labelBackgroundColor=none;rounded=0;html=1;whiteSpace=wrap;fontFamily=GOST type B;" parent="1" vertex="1">
          <mxGeometry x="250" y="1017" width="59" height="19" as="geometry" />
        </mxCell>
        <mxCell id="13" value="&lt;div style=&quot;font-size: 1px&quot;&gt;&lt;font style=&quot;font-size: 11.29px; color: rgb(0, 0, 0); direction: ltr; letter-spacing: 0px; line-height: 120%; opacity: 1;&quot;&gt;&lt;i&gt;Дата&lt;br&gt;&lt;/i&gt;&lt;/font&gt;&lt;/div&gt;" style="verticalAlign=middle;align=center;vsdxID=38;fillColor=none;gradientColor=none;shape=stencil(nZBLDoAgDERP0z3SIyjew0SURgSD+Lu9kMZoXLhwN9O+tukAlrNpJg1SzDH4QW/URgNYgZTkjA4UkwJUgGXng+6DX1zLfmoymdXo17xh5zmRJ6Q42BWCfc2oJfdAr+Yv+AP9Cb7OJ3H/2JG1HNGz/84klThPVCc=);strokeColor=none;points=[];labelBackgroundColor=none;rounded=0;html=1;whiteSpace=wrap;fontFamily=GOST type B;" parent="1" vertex="1">
          <mxGeometry x="296" y="1016.5" width="42" height="20" as="geometry" />
        </mxCell>
        <mxCell id="14" value="&lt;div style=&quot;font-size: 1px&quot;&gt;&lt;font style=&quot;font-size: 12.7px; color: rgb(0, 0, 0); direction: ltr; letter-spacing: 0px; line-height: 120%; opacity: 1;&quot;&gt;&lt;i&gt;Литера&lt;br&gt;&lt;/i&gt;&lt;/font&gt;&lt;/div&gt;" style="verticalAlign=middle;align=center;vsdxID=39;fillColor=none;gradientColor=none;shape=stencil(nZBLDoAgDERP0z3SIyjew0SURgSD+Lu9kMZoXLhwN9O+tukAlrNpJg1SzDH4QW/URgNYgZTkjA4UkwJUgGXng+6DX1zLfmoymdXo17xh5zmRJ6Q42BWCfc2oJfdAr+Yv+AP9Cb7OJ3H/2JG1HNGz/84klThPVCc=);strokeColor=none;points=[];labelBackgroundColor=none;rounded=0;html=1;whiteSpace=wrap;fontFamily=GOST type B;" parent="1" vertex="1">
          <mxGeometry x="618" y="1000" width="57" height="20" as="geometry" />
        </mxCell>
        <mxCell id="15" value="&lt;div style=&quot;font-size: 1px&quot;&gt;&lt;font style=&quot;font-size: 12.7px; color: rgb(0, 0, 0); direction: ltr; letter-spacing: 0px; line-height: 120%; opacity: 1;&quot;&gt;&lt;i&gt;Масса&lt;/i&gt;&lt;/font&gt;&lt;/div&gt;" style="verticalAlign=middle;align=center;vsdxID=40;fillColor=none;gradientColor=none;shape=stencil(nZBLDoAgDERP0z3SIyjew0SURgSD+Lu9kMZoXLhwN9O+tukAlrNpJg1SzDH4QW/URgNYgZTkjA4UkwJUgGXng+6DX1zLfmoymdXo17xh5zmRJ6Q42BWCfc2oJfdAr+Yv+AP9Cb7OJ3H/2JG1HNGz/84klThPVCc=);strokeColor=none;points=[];labelBackgroundColor=none;rounded=0;html=1;whiteSpace=wrap;fontFamily=GOST type B;" parent="1" vertex="1">
          <mxGeometry x="675" y="1000" width="59" height="20" as="geometry" />
        </mxCell>
        <mxCell id="16" value="&lt;div style=&quot;font-size: 1px&quot;&gt;&lt;font style=&quot;font-size: 12.7px; color: rgb(0, 0, 0); direction: ltr; letter-spacing: 0px; line-height: 120%; opacity: 1;&quot;&gt;&lt;i&gt;Масштаб&lt;br&gt;&lt;/i&gt;&lt;/font&gt;&lt;/div&gt;" style="verticalAlign=middle;align=center;vsdxID=41;fillColor=none;gradientColor=none;shape=stencil(nZBLDoAgDERP0z3SIyjew0SURgSD+Lu9kMZoXLhwN9O+tukAlrNpJg1SzDH4QW/URgNYgZTkjA4UkwJUgGXng+6DX1zLfmoymdXo17xh5zmRJ6Q42BWCfc2oJfdAr+Yv+AP9Cb7OJ3H/2JG1HNGz/84klThPVCc=);strokeColor=none;points=[];labelBackgroundColor=none;rounded=0;html=1;whiteSpace=wrap;fontFamily=GOST type B;" parent="1" vertex="1">
          <mxGeometry x="743" y="1000" width="65" height="20" as="geometry" />
        </mxCell>
        <mxCell id="54" style="vsdxID=2;edgeStyle=none;startArrow=none;endArrow=none;startSize=5;endSize=5;strokeWidth=3;strokeColor=#000000;spacingTop=0;spacingBottom=0;spacingLeft=0;spacingRight=0;verticalAlign=middle;html=1;labelBackgroundColor=none;rounded=0;exitX=1.001;exitY=0.611;exitDx=0;exitDy=0;exitPerimeter=0;" parent="1" source="18" edge="1">
          <mxGeometry relative="1" as="geometry">
            <mxPoint as="offset" />
            <Array as="points" />
            <mxPoint x="616" y="1098" as="sourcePoint" />
            <mxPoint x="808" y="1098" as="targetPoint" />
          </mxGeometry>
        </mxCell>
        <mxCell id="17" value="&lt;div style=&quot;font-size: 1px&quot;&gt;&lt;font style=&quot;font-size: 14.11px; color: rgb(0, 0, 0); direction: ltr; letter-spacing: 0px; line-height: 120%; opacity: 1;&quot;&gt;&lt;i&gt;Листов 1&lt;/i&gt;&lt;/font&gt;&lt;/div&gt;" style="verticalAlign=middle;align=center;vsdxID=13;fillColor=none;gradientColor=none;shape=stencil(nZBLDoAgDERP0z3SIyjew0SURgSD+Lu9kMZoXLhwN9O+tukAlrNpJg1SzDH4QW/URgNYgZTkjA4UkwJUgGXng+6DX1zLfmoymdXo17xh5zmRJ6Q42BWCfc2oJfdAr+Yv+AP9Cb7OJ3H/2JG1HNGz/84klThPVCc=);strokeColor=none;strokeWidth=4;points=[];labelBackgroundColor=none;rounded=0;html=1;whiteSpace=wrap;fontFamily=GOST type B;" parent="1" vertex="1">
          <mxGeometry x="691" y="1077.5" width="119" height="21" as="geometry" />
        </mxCell>
        <mxCell id="18" value="&lt;div style=&quot;&quot;&gt;&lt;p style=&quot;margin: 0px; text-indent: 0px; direction: ltr; font-size: 16.93px;&quot;&gt;&lt;font face=&quot;GOST type B&quot;&gt;&lt;i&gt;Схема взаимодействия разработчика с Protocol Buffers&lt;/i&gt;&lt;/font&gt;&lt;/p&gt;&lt;p style=&quot;margin: 0px; text-indent: 0px; direction: ltr; font-size: 16.93px;&quot;&gt;&lt;font face=&quot;GOST type B&quot;&gt;&lt;i&gt;Схема алгоритма.&lt;/i&gt;&lt;/font&gt;&lt;/p&gt;&lt;/div&gt;" style="verticalAlign=middle;align=center;vsdxID=21;fillColor=none;gradientColor=none;shape=stencil(nZBLDoAgDERP0z3SIyjew0SURgSD+Lu9kMZoXLhwN9O+tukAlrNpJg1SzDH4QW/URgNYgZTkjA4UkwJUgGXng+6DX1zLfmoymdXo17xh5zmRJ6Q42BWCfc2oJfdAr+Yv+AP9Cb7OJ3H/2JG1HNGz/84klThPVCc=);strokeColor=none;strokeWidth=4;points=[];labelBackgroundColor=none;rounded=0;html=1;whiteSpace=wrap;" parent="1" vertex="1">
          <mxGeometry x="338" y="1000" width="280" height="160" as="geometry" />
        </mxCell>
        <mxCell id="19" value="&lt;div style=&quot;&quot;&gt;&lt;p style=&quot;margin: 0px; text-indent: 0px; direction: ltr;&quot;&gt;&lt;span style=&quot;font-size: 14.11px;&quot;&gt;&lt;i&gt;Козлов&lt;/i&gt;&lt;/span&gt;&lt;/p&gt;&lt;/div&gt;" style="verticalAlign=middle;align=left;vsdxID=72;fillColor=none;gradientColor=none;shape=stencil(nZBLDoAgDERP0z3SIyjew0SURgSD+Lu9kMZoXLhwN9O+tukAlrNpJg1SzDH4QW/URgNYgZTkjA4UkwJUgGXng+6DX1zLfmoymdXo17xh5zmRJ6Q42BWCfc2oJfdAr+Yv+AP9Cb7OJ3H/2JG1HNGz/84klThPVCc=);strokeColor=none;points=[];labelBackgroundColor=none;rounded=0;html=1;whiteSpace=wrap;fontFamily=GOST type B;spacingLeft=1;" parent="1" vertex="1">
          <mxGeometry x="150" y="1037" width="109" height="20" as="geometry" />
        </mxCell>
        <mxCell id="20" value="&lt;div style=&quot;font-size: 1px&quot;&gt;&lt;p style=&quot;align:left;margin-left:0;margin-right:0;margin-top:0px;margin-bottom:0px;text-indent:0;valign:middle;direction:ltr;&quot;&gt;&lt;font style=&quot;font-size: 14.11px; color: rgb(0, 0, 0); direction: ltr; letter-spacing: 0px; line-height: 120%; opacity: 1;&quot;&gt;&lt;i&gt;Сиротко&lt;br&gt;&lt;/i&gt;&lt;/font&gt;&lt;/p&gt;&lt;/div&gt;" style="verticalAlign=middle;align=left;vsdxID=73;fillColor=none;gradientColor=none;shape=stencil(nZBLDoAgDERP0z3SIyjew0SURgSD+Lu9kMZoXLhwN9O+tukAlrNpJg1SzDH4QW/URgNYgZTkjA4UkwJUgGXng+6DX1zLfmoymdXo17xh5zmRJ6Q42BWCfc2oJfdAr+Yv+AP9Cb7OJ3H/2JG1HNGz/84klThPVCc=);strokeColor=none;spacingLeft=1;spacingRight=-3;points=[];labelBackgroundColor=none;rounded=0;html=1;whiteSpace=wrap;fontFamily=GOST type B;" parent="1" vertex="1">
          <mxGeometry x="149" y="1055" width="83" height="22" as="geometry" />
        </mxCell>
        <mxCell id="21" value="&lt;div style=&quot;font-size: 1px&quot;&gt;&lt;/div&gt;" style="vsdxID=106;fillColor=none;gradientColor=none;strokeColor=none;points=[];labelBackgroundColor=none;rounded=0;html=1;whiteSpace=wrap;" parent="1" vertex="1">
          <mxGeometry x="350" y="870" width="470" height="80" as="geometry" />
        </mxCell>
        <mxCell id="22" value="&lt;div style=&quot;font-size: 1px&quot;&gt;&lt;font style=&quot;font-size: 36.69px; color: rgb(0, 0, 0); direction: ltr; letter-spacing: 0px; line-height: 120%; opacity: 1;&quot;&gt;&lt;i&gt;ГУИР.053501-03 СА&lt;/i&gt;&lt;/font&gt;&lt;font style=&quot;font-size: 16.93px; color: rgb(0, 0, 0); direction: ltr; letter-spacing: 0px; line-height: 120%; opacity: 1;&quot;&gt;&lt;br&gt;&lt;/font&gt;&lt;/div&gt;" style="verticalAlign=bottom;align=center;vsdxID=16;fillColor=none;gradientColor=none;shape=stencil(nZBLDoAgDERP0z3SIyjew0SURgSD+Lu9kMZoXLhwN9O+tukAlrNpJg1SzDH4QW/URgNYgZTkjA4UkwJUgGXng+6DX1zLfmoymdXo17xh5zmRJ6Q42BWCfc2oJfdAr+Yv+AP9Cb7OJ3H/2JG1HNGz/84klThPVCc=);strokeColor=none;strokeWidth=4;points=[];labelBackgroundColor=none;rounded=0;html=1;whiteSpace=wrap;fontFamily=GOST type B;" parent="1" vertex="1">
          <mxGeometry x="338" y="920" width="470" height="80" as="geometry" />
        </mxCell>
        <mxCell id="50qUFXxzEs_wAyaEDI5A-77" value="&lt;div style=&quot;font-size: 1px&quot;&gt;&lt;p style=&quot;align:left;margin-left:0;margin-right:0;margin-top:0px;margin-bottom:0px;text-indent:0;valign:middle;direction:ltr;&quot;&gt;&lt;font style=&quot;font-size: 14.11px; color: rgb(0, 0, 0); direction: ltr; letter-spacing: 0px; line-height: 120%; opacity: 1;&quot;&gt;&lt;i&gt;Гриценко&lt;/i&gt;&lt;/font&gt;&lt;/p&gt;&lt;/div&gt;" style="verticalAlign=middle;align=left;vsdxID=73;fillColor=none;gradientColor=none;shape=stencil(nZBLDoAgDERP0z3SIyjew0SURgSD+Lu9kMZoXLhwN9O+tukAlrNpJg1SzDH4QW/URgNYgZTkjA4UkwJUgGXng+6DX1zLfmoymdXo17xh5zmRJ6Q42BWCfc2oJfdAr+Yv+AP9Cb7OJ3H/2JG1HNGz/84klThPVCc=);strokeColor=none;spacingLeft=1;spacingRight=-3;points=[];labelBackgroundColor=none;rounded=0;html=1;whiteSpace=wrap;fontFamily=GOST type B;" parent="1" vertex="1">
          <mxGeometry x="149" y="1117" width="83" height="22" as="geometry" />
        </mxCell>
        <mxCell id="tQ9gYg5TCyGaoglzA94V-57" style="edgeStyle=orthogonalEdgeStyle;rounded=0;orthogonalLoop=1;jettySize=auto;html=1;entryX=0.501;entryY=0.229;entryDx=0;entryDy=0;entryPerimeter=0;fontFamily=GOST type B;fontSize=13;fontSource=https%3A%2F%2Fdrive.google.com%2Fuc%3Fexport%3Ddownload%26id%3D1UrnLVkHcLbHLojcf2ejICCGZ1GY9liKW;" parent="1" edge="1">
          <mxGeometry relative="1" as="geometry">
            <mxPoint x="177.0999999999999" y="352.5999999999999" as="sourcePoint" />
          </mxGeometry>
        </mxCell>
        <mxCell id="tQ9gYg5TCyGaoglzA94V-59" style="edgeStyle=orthogonalEdgeStyle;rounded=0;orthogonalLoop=1;jettySize=auto;html=1;entryX=0.5;entryY=0;entryDx=0;entryDy=0;fontFamily=GOST type B;fontSize=13;fontSource=https%3A%2F%2Fdrive.google.com%2Fuc%3Fexport%3Ddownload%26id%3D1UrnLVkHcLbHLojcf2ejICCGZ1GY9liKW;" parent="1" edge="1">
          <mxGeometry relative="1" as="geometry">
            <mxPoint x="177.0999999999999" y="432.5999999999999" as="sourcePoint" />
          </mxGeometry>
        </mxCell>
        <mxCell id="tQ9gYg5TCyGaoglzA94V-144" value="&lt;div style=&quot;&quot;&gt;&lt;font style=&quot;color: rgb(0, 0, 0); direction: ltr; letter-spacing: 0px; line-height: 120%; opacity: 1; font-size: 17px;&quot;&gt;&lt;i&gt;Кафедра информатики&lt;br&gt;группа 053501&lt;/i&gt;&lt;/font&gt;&lt;/div&gt;" style="verticalAlign=middle;align=center;vsdxID=43;fillColor=none;gradientColor=none;shape=stencil(nZBLDoAgDERP0z3SIyjew0SURgSD+Lu9kMZoXLhwN9O+tukAlrNpJg1SzDH4QW/URgNYgZTkjA4UkwJUgGXng+6DX1zLfmoymdXo17xh5zmRJ6Q42BWCfc2oJfdAr+Yv+AP9Cb7OJ3H/2JG1HNGz/84klThPVCc=);strokeColor=none;strokeWidth=4;points=[];labelBackgroundColor=none;rounded=0;html=1;whiteSpace=wrap;fontFamily=GOST type B;" parent="1" vertex="1">
          <mxGeometry x="622" y="1104" width="180" height="53" as="geometry" />
        </mxCell>
        <mxCell id="tQ9gYg5TCyGaoglzA94V-145" value="&lt;div style=&quot;font-size: 1px&quot;&gt;&lt;p style=&quot;align:left;margin-left:0;margin-right:0;margin-top:0px;margin-bottom:0px;text-indent:0;valign:middle;direction:ltr;&quot;&gt;&lt;font style=&quot;font-size: 14.11px; color: rgb(0, 0, 0); direction: ltr; letter-spacing: 0px; line-height: 120%; opacity: 1;&quot;&gt;&lt;i&gt;Сиротко&lt;/i&gt;&lt;/font&gt;&lt;/p&gt;&lt;/div&gt;" style="verticalAlign=middle;align=left;vsdxID=73;fillColor=none;gradientColor=none;shape=stencil(nZBLDoAgDERP0z3SIyjew0SURgSD+Lu9kMZoXLhwN9O+tukAlrNpJg1SzDH4QW/URgNYgZTkjA4UkwJUgGXng+6DX1zLfmoymdXo17xh5zmRJ6Q42BWCfc2oJfdAr+Yv+AP9Cb7OJ3H/2JG1HNGz/84klThPVCc=);strokeColor=none;spacingLeft=1;spacingRight=-3;points=[];labelBackgroundColor=none;rounded=0;html=1;whiteSpace=wrap;fontFamily=GOST type B;" parent="1" vertex="1">
          <mxGeometry x="149" y="1140" width="83" height="19" as="geometry" />
        </mxCell>
        <mxCell id="SP3syGM84WpBd3XU5OWf-54" value="&lt;div style=&quot;font-size: 1px&quot;&gt;&lt;/div&gt;" style="vsdxID=22;edgeStyle=none;startArrow=none;endArrow=none;startSize=5;endSize=5;strokeColor=#000000;spacingTop=0;spacingBottom=0;spacingLeft=0;spacingRight=0;verticalAlign=middle;html=1;labelBackgroundColor=none;rounded=0;align=center;" parent="1" edge="1">
          <mxGeometry relative="1" as="geometry">
            <mxPoint as="offset" />
            <Array as="points" />
            <mxPoint x="80" y="980" as="sourcePoint" />
            <mxPoint x="338" y="980" as="targetPoint" />
          </mxGeometry>
        </mxCell>
        <mxCell id="SP3syGM84WpBd3XU5OWf-55" value="&lt;div style=&quot;font-size: 1px&quot;&gt;&lt;/div&gt;" style="vsdxID=22;edgeStyle=none;startArrow=none;endArrow=none;startSize=5;endSize=5;strokeColor=#000000;spacingTop=0;spacingBottom=0;spacingLeft=0;spacingRight=0;verticalAlign=middle;html=1;labelBackgroundColor=none;rounded=0;align=center;" parent="1" edge="1">
          <mxGeometry relative="1" as="geometry">
            <mxPoint as="offset" />
            <Array as="points" />
            <mxPoint x="80" y="960" as="sourcePoint" />
            <mxPoint x="338" y="960" as="targetPoint" />
          </mxGeometry>
        </mxCell>
        <mxCell id="SP3syGM84WpBd3XU5OWf-57" value="&lt;div style=&quot;font-size: 1px&quot;&gt;&lt;font style=&quot;font-size: 14.11px; color: rgb(0, 0, 0); direction: ltr; letter-spacing: 0px; line-height: 120%; opacity: 1;&quot;&gt;&lt;i&gt;Реценз.&lt;br&gt;&lt;/i&gt;&lt;/font&gt;&lt;/div&gt;" style="verticalAlign=middle;align=left;vsdxID=30;fillColor=none;gradientColor=none;shape=stencil(nZBLDoAgDERP0z3SIyjew0SURgSD+Lu9kMZoXLhwN9O+tukAlrNpJg1SzDH4QW/URgNYgZTkjA4UkwJUgGXng+6DX1zLfmoymdXo17xh5zmRJ6Q42BWCfc2oJfdAr+Yv+AP9Cb7OJ3H/2JG1HNGz/84klThPVCc=);strokeColor=none;points=[];labelBackgroundColor=none;rounded=0;html=1;whiteSpace=wrap;fontFamily=GOST type B;spacingLeft=0;" parent="1" vertex="1">
          <mxGeometry x="82" y="1097" width="67" height="20" as="geometry" />
        </mxCell>
        <mxCell id="SP3syGM84WpBd3XU5OWf-58" style="vsdxID=26;edgeStyle=none;startArrow=none;endArrow=none;startSize=5;endSize=5;strokeColor=#000000;spacingTop=0;spacingBottom=0;spacingLeft=0;spacingRight=0;verticalAlign=middle;html=1;labelBackgroundColor=none;rounded=0;" parent="1" edge="1">
          <mxGeometry relative="1" as="geometry">
            <mxPoint as="offset" />
            <Array as="points" />
            <mxPoint x="80" y="1056.64" as="sourcePoint" />
            <mxPoint x="338" y="1056.64" as="targetPoint" />
          </mxGeometry>
        </mxCell>
        <mxCell id="SP3syGM84WpBd3XU5OWf-59" style="vsdxID=26;edgeStyle=none;startArrow=none;endArrow=none;startSize=5;endSize=5;strokeColor=#000000;spacingTop=0;spacingBottom=0;spacingLeft=0;spacingRight=0;verticalAlign=middle;html=1;labelBackgroundColor=none;rounded=0;" parent="1" edge="1">
          <mxGeometry relative="1" as="geometry">
            <mxPoint as="offset" />
            <Array as="points" />
            <mxPoint x="80" y="1077" as="sourcePoint" />
            <mxPoint x="338" y="1077" as="targetPoint" />
          </mxGeometry>
        </mxCell>
        <mxCell id="SP3syGM84WpBd3XU5OWf-60" value="&lt;div style=&quot;font-size: 1px&quot;&gt;&lt;font style=&quot;font-size: 14.11px; color: rgb(0, 0, 0); direction: ltr; letter-spacing: 0px; line-height: 120%; opacity: 1;&quot;&gt;&lt;i&gt;Т. контр.&lt;/i&gt;&lt;/font&gt;&lt;/div&gt;" style="verticalAlign=middle;align=left;vsdxID=30;fillColor=none;gradientColor=none;shape=stencil(nZBLDoAgDERP0z3SIyjew0SURgSD+Lu9kMZoXLhwN9O+tukAlrNpJg1SzDH4QW/URgNYgZTkjA4UkwJUgGXng+6DX1zLfmoymdXo17xh5zmRJ6Q42BWCfc2oJfdAr+Yv+AP9Cb7OJ3H/2JG1HNGz/84klThPVCc=);strokeColor=none;points=[];labelBackgroundColor=none;rounded=0;html=1;whiteSpace=wrap;fontFamily=GOST type B;spacingLeft=0;" parent="1" vertex="1">
          <mxGeometry x="82" y="1078" width="67" height="20" as="geometry" />
        </mxCell>
        <mxCell id="SP3syGM84WpBd3XU5OWf-61" value="&lt;div style=&quot;font-size: 1px&quot;&gt;&lt;/div&gt;" style="vsdxID=22;edgeStyle=none;startArrow=none;endArrow=none;startSize=5;endSize=5;strokeColor=#000000;spacingTop=0;spacingBottom=0;spacingLeft=0;spacingRight=0;verticalAlign=middle;html=1;labelBackgroundColor=none;rounded=0;align=center;" parent="1" edge="1">
          <mxGeometry relative="1" as="geometry">
            <mxPoint as="offset" />
            <Array as="points" />
            <mxPoint x="80" y="940" as="sourcePoint" />
            <mxPoint x="338" y="940" as="targetPoint" />
          </mxGeometry>
        </mxCell>
        <mxCell id="SP3syGM84WpBd3XU5OWf-63" style="vsdxID=10;edgeStyle=none;startArrow=none;endArrow=none;startSize=5;endSize=5;strokeWidth=3;strokeColor=#000000;spacingTop=0;spacingBottom=0;spacingLeft=0;spacingRight=0;verticalAlign=middle;html=1;labelBackgroundColor=none;rounded=0;" parent="1" edge="1">
          <mxGeometry relative="1" as="geometry">
            <mxPoint as="offset" />
            <Array as="points" />
            <mxPoint x="80" y="1000" as="sourcePoint" />
            <mxPoint x="338" y="1000" as="targetPoint" />
          </mxGeometry>
        </mxCell>
        <mxCell id="SP3syGM84WpBd3XU5OWf-64" style="vsdxID=10;edgeStyle=none;startArrow=none;endArrow=none;startSize=5;endSize=5;strokeWidth=3;strokeColor=#000000;spacingTop=0;spacingBottom=0;spacingLeft=0;spacingRight=0;verticalAlign=middle;html=1;labelBackgroundColor=none;rounded=0;" parent="1" edge="1">
          <mxGeometry relative="1" as="geometry">
            <mxPoint as="offset" />
            <Array as="points" />
            <mxPoint x="80" y="980" as="sourcePoint" />
            <mxPoint x="338" y="980" as="targetPoint" />
          </mxGeometry>
        </mxCell>
        <mxCell id="SP3syGM84WpBd3XU5OWf-65" style="vsdxID=10;edgeStyle=none;startArrow=none;endArrow=none;startSize=5;endSize=5;strokeWidth=3;strokeColor=#000000;spacingTop=0;spacingBottom=0;spacingLeft=0;spacingRight=0;verticalAlign=middle;html=1;labelBackgroundColor=none;rounded=0;" parent="1" edge="1">
          <mxGeometry relative="1" as="geometry">
            <mxPoint as="offset" />
            <Array as="points" />
            <mxPoint x="80" y="960" as="sourcePoint" />
            <mxPoint x="338" y="960" as="targetPoint" />
          </mxGeometry>
        </mxCell>
        <mxCell id="SP3syGM84WpBd3XU5OWf-66" style="vsdxID=10;edgeStyle=none;startArrow=none;endArrow=none;startSize=5;endSize=5;strokeWidth=3;strokeColor=#000000;spacingTop=0;spacingBottom=0;spacingLeft=0;spacingRight=0;verticalAlign=middle;html=1;labelBackgroundColor=none;rounded=0;" parent="1" edge="1">
          <mxGeometry relative="1" as="geometry">
            <mxPoint as="offset" />
            <Array as="points" />
            <mxPoint x="80" y="1057" as="sourcePoint" />
            <mxPoint x="338" y="1057" as="targetPoint" />
          </mxGeometry>
        </mxCell>
        <mxCell id="SP3syGM84WpBd3XU5OWf-67" style="vsdxID=10;edgeStyle=none;startArrow=none;endArrow=none;startSize=5;endSize=5;strokeWidth=3;strokeColor=#000000;spacingTop=0;spacingBottom=0;spacingLeft=0;spacingRight=0;verticalAlign=middle;html=1;labelBackgroundColor=none;rounded=0;" parent="1" edge="1">
          <mxGeometry relative="1" as="geometry">
            <mxPoint as="offset" />
            <Array as="points" />
            <mxPoint x="80" y="1078" as="sourcePoint" />
            <mxPoint x="338" y="1078" as="targetPoint" />
          </mxGeometry>
        </mxCell>
        <mxCell id="SP3syGM84WpBd3XU5OWf-68" style="vsdxID=10;edgeStyle=none;startArrow=none;endArrow=none;startSize=5;endSize=5;strokeWidth=3;strokeColor=#000000;spacingTop=0;spacingBottom=0;spacingLeft=0;spacingRight=0;verticalAlign=middle;html=1;labelBackgroundColor=none;rounded=0;" parent="1" edge="1">
          <mxGeometry relative="1" as="geometry">
            <mxPoint as="offset" />
            <Array as="points" />
            <mxPoint x="80" y="1098" as="sourcePoint" />
            <mxPoint x="338" y="1098" as="targetPoint" />
          </mxGeometry>
        </mxCell>
        <mxCell id="SP3syGM84WpBd3XU5OWf-69" style="vsdxID=10;edgeStyle=none;startArrow=none;endArrow=none;startSize=5;endSize=5;strokeWidth=3;strokeColor=#000000;spacingTop=0;spacingBottom=0;spacingLeft=0;spacingRight=0;verticalAlign=middle;html=1;labelBackgroundColor=none;rounded=0;" parent="1" edge="1">
          <mxGeometry relative="1" as="geometry">
            <mxPoint as="offset" />
            <Array as="points" />
            <mxPoint x="80" y="1118" as="sourcePoint" />
            <mxPoint x="338" y="1118" as="targetPoint" />
          </mxGeometry>
        </mxCell>
        <mxCell id="SP3syGM84WpBd3XU5OWf-70" style="vsdxID=10;edgeStyle=none;startArrow=none;endArrow=none;startSize=5;endSize=5;strokeWidth=3;strokeColor=#000000;spacingTop=0;spacingBottom=0;spacingLeft=0;spacingRight=0;verticalAlign=middle;html=1;labelBackgroundColor=none;rounded=0;" parent="1" edge="1">
          <mxGeometry relative="1" as="geometry">
            <mxPoint as="offset" />
            <Array as="points" />
            <mxPoint x="80" y="1139" as="sourcePoint" />
            <mxPoint x="338" y="1139" as="targetPoint" />
          </mxGeometry>
        </mxCell>
        <mxCell id="SP3syGM84WpBd3XU5OWf-72" style="vsdxID=14;edgeStyle=none;startArrow=none;endArrow=none;startSize=5;endSize=5;strokeWidth=3;strokeColor=#000000;spacingTop=0;spacingBottom=0;spacingLeft=0;spacingRight=0;verticalAlign=middle;html=1;labelBackgroundColor=none;rounded=0;exitX=1.001;exitY=0.488;exitDx=0;exitDy=0;exitPerimeter=0;" parent="1" edge="1">
          <mxGeometry relative="1" as="geometry">
            <Array as="points" />
            <mxPoint x="618" y="1019.72" as="sourcePoint" />
            <mxPoint x="808" y="1019.72" as="targetPoint" />
          </mxGeometry>
        </mxCell>
        <mxCell id="SP3syGM84WpBd3XU5OWf-73" value="&lt;div style=&quot;font-size: 1px&quot;&gt;&lt;font style=&quot;font-size: 12.7px; color: rgb(0, 0, 0); direction: ltr; letter-spacing: 0px; line-height: 120%; opacity: 1;&quot;&gt;&lt;i&gt;Лист 1&lt;br&gt;&lt;/i&gt;&lt;/font&gt;&lt;/div&gt;" style="verticalAlign=middle;align=center;vsdxID=39;fillColor=none;gradientColor=none;shape=stencil(nZBLDoAgDERP0z3SIyjew0SURgSD+Lu9kMZoXLhwN9O+tukAlrNpJg1SzDH4QW/URgNYgZTkjA4UkwJUgGXng+6DX1zLfmoymdXo17xh5zmRJ6Q42BWCfc2oJfdAr+Yv+AP9Cb7OJ3H/2JG1HNGz/84klThPVCc=);strokeColor=none;points=[];labelBackgroundColor=none;rounded=0;html=1;whiteSpace=wrap;fontFamily=GOST type B;" parent="1" vertex="1">
          <mxGeometry x="619" y="1077.5" width="71" height="20" as="geometry" />
        </mxCell>
        <mxCell id="SP3syGM84WpBd3XU5OWf-74" style="vsdxID=17;fillColor=#FFFFFF;gradientColor=none;shape=stencil(UzV2Ls5ILEhVNTIoLinKz04tz0wpyVA1dlE1MsrMy0gtyiwBslSNXVWNndPyi1LTi/JL81Ig/IJEkEoQKze/DGRCBUSfAUiHkUElMs8NojAnMw+nQkMDcpUCGQi3QLyBLIfubqAQxM/GrgA=);strokeColor=#000000;strokeWidth=3;points=[];labelBackgroundColor=none;rounded=0;html=1;whiteSpace=wrap;" parent="1" vertex="1">
          <mxGeometry x="637" y="1018.5" width="1" height="61" as="geometry" />
        </mxCell>
        <mxCell id="SP3syGM84WpBd3XU5OWf-76" style="vsdxID=17;fillColor=#FFFFFF;gradientColor=none;shape=stencil(UzV2Ls5ILEhVNTIoLinKz04tz0wpyVA1dlE1MsrMy0gtyiwBslSNXVWNndPyi1LTi/JL81Ig/IJEkEoQKze/DGRCBUSfAUiHkUElMs8NojAnMw+nQkMDcpUCGQi3QLyBLIfubqAQxM/GrgA=);strokeColor=#000000;strokeWidth=3;points=[];labelBackgroundColor=none;rounded=0;html=1;whiteSpace=wrap;" parent="1" vertex="1">
          <mxGeometry x="657" y="1018.5" width="1" height="60" as="geometry" />
        </mxCell>
        <mxCell id="SP3syGM84WpBd3XU5OWf-77" value="&lt;div style=&quot;&quot;&gt;&lt;span style=&quot;font-size: 12.7px;&quot;&gt;&lt;i&gt;Т&lt;/i&gt;&lt;/span&gt;&lt;/div&gt;" style="verticalAlign=middle;align=center;vsdxID=39;fillColor=none;gradientColor=none;shape=stencil(nZBLDoAgDERP0z3SIyjew0SURgSD+Lu9kMZoXLhwN9O+tukAlrNpJg1SzDH4QW/URgNYgZTkjA4UkwJUgGXng+6DX1zLfmoymdXo17xh5zmRJ6Q42BWCfc2oJfdAr+Yv+AP9Cb7OJ3H/2JG1HNGz/84klThPVCc=);strokeColor=none;points=[];labelBackgroundColor=none;rounded=0;html=1;whiteSpace=wrap;fontFamily=GOST type B;" parent="1" vertex="1">
          <mxGeometry x="633.5" y="1025.5" width="28" height="43" as="geometry" />
        </mxCell>
        <mxCell id="SP3syGM84WpBd3XU5OWf-78" style="vsdxID=17;fillColor=#FFFFFF;gradientColor=none;shape=stencil(UzV2Ls5ILEhVNTIoLinKz04tz0wpyVA1dlE1MsrMy0gtyiwBslSNXVWNndPyi1LTi/JL81Ig/IJEkEoQKze/DGRCBUSfAUiHkUElMs8NojAnMw+nQkMDcpUCGQi3QLyBLIfubqAQxM/GrgA=);strokeColor=#000000;strokeWidth=3;points=[];labelBackgroundColor=none;rounded=0;html=1;whiteSpace=wrap;" parent="1" vertex="1">
          <mxGeometry x="690" y="1077" width="1" height="22" as="geometry" />
        </mxCell>
        <mxCell id="dw-T_UsJeQvIAVW3oOok-54" value="&lt;div style=&quot;font-size: 1px&quot;&gt;&lt;font style=&quot;font-size: 14.11px; color: rgb(0, 0, 0); direction: ltr; letter-spacing: 0px; line-height: 120%; opacity: 1;&quot;&gt;&lt;i&gt;1:1&lt;/i&gt;&lt;/font&gt;&lt;/div&gt;" style="verticalAlign=middle;align=center;vsdxID=13;fillColor=none;gradientColor=none;shape=stencil(nZBLDoAgDERP0z3SIyjew0SURgSD+Lu9kMZoXLhwN9O+tukAlrNpJg1SzDH4QW/URgNYgZTkjA4UkwJUgGXng+6DX1zLfmoymdXo17xh5zmRJ6Q42BWCfc2oJfdAr+Yv+AP9Cb7OJ3H/2JG1HNGz/84klThPVCc=);strokeColor=none;strokeWidth=4;points=[];labelBackgroundColor=none;rounded=0;html=1;whiteSpace=wrap;fontFamily=GOST type B;" parent="1" vertex="1">
          <mxGeometry x="730" y="1020" width="80" height="60" as="geometry" />
        </mxCell>
        <mxCell id="_qn-w2AcZbO7UsHYCi19-90" style="edgeStyle=orthogonalEdgeStyle;rounded=0;orthogonalLoop=1;jettySize=auto;html=1;endArrow=open;endFill=0;" parent="1" source="dw-T_UsJeQvIAVW3oOok-56" target="_qn-w2AcZbO7UsHYCi19-80" edge="1">
          <mxGeometry relative="1" as="geometry" />
        </mxCell>
        <mxCell id="dw-T_UsJeQvIAVW3oOok-56" value="Начало" style="ellipse;whiteSpace=wrap;html=1;" parent="1" vertex="1">
          <mxGeometry x="225.75" y="170" width="200" height="80" as="geometry" />
        </mxCell>
        <mxCell id="32KKjaN5z-eytRfcpf2T-71" value="" style="edgeStyle=orthogonalEdgeStyle;rounded=0;orthogonalLoop=1;jettySize=auto;html=1;endArrow=none;endFill=0;" parent="1" edge="1">
          <mxGeometry relative="1" as="geometry">
            <mxPoint x="359" y="290" as="sourcePoint" />
          </mxGeometry>
        </mxCell>
        <mxCell id="32KKjaN5z-eytRfcpf2T-65" value="" style="edgeStyle=orthogonalEdgeStyle;rounded=0;orthogonalLoop=1;jettySize=auto;html=1;endArrow=none;endFill=0;" parent="1" edge="1">
          <mxGeometry relative="1" as="geometry">
            <mxPoint x="359" y="520" as="sourcePoint" />
          </mxGeometry>
        </mxCell>
        <mxCell id="32KKjaN5z-eytRfcpf2T-66" value="" style="edgeStyle=orthogonalEdgeStyle;rounded=0;orthogonalLoop=1;jettySize=auto;html=1;endArrow=none;endFill=0;" parent="1" edge="1">
          <mxGeometry relative="1" as="geometry">
            <mxPoint x="459" y="470" as="sourcePoint" />
          </mxGeometry>
        </mxCell>
        <mxCell id="32KKjaN5z-eytRfcpf2T-60" value="" style="edgeStyle=orthogonalEdgeStyle;rounded=0;orthogonalLoop=1;jettySize=auto;html=1;endArrow=none;endFill=0;" parent="1" edge="1">
          <mxGeometry relative="1" as="geometry">
            <mxPoint x="359" y="385" as="sourcePoint" />
          </mxGeometry>
        </mxCell>
        <mxCell id="32KKjaN5z-eytRfcpf2T-73" value="" style="edgeStyle=orthogonalEdgeStyle;rounded=0;orthogonalLoop=1;jettySize=auto;html=1;endArrow=none;endFill=0;" parent="1" edge="1">
          <mxGeometry relative="1" as="geometry">
            <mxPoint x="359" y="630" as="sourcePoint" />
          </mxGeometry>
        </mxCell>
        <mxCell id="32KKjaN5z-eytRfcpf2T-75" value="1" style="text;html=1;align=center;verticalAlign=middle;whiteSpace=wrap;rounded=0;fillColor=default;" parent="1" vertex="1">
          <mxGeometry x="269.75" y="170" width="18" height="10" as="geometry" />
        </mxCell>
        <mxCell id="_qn-w2AcZbO7UsHYCi19-67" style="edgeStyle=orthogonalEdgeStyle;rounded=0;orthogonalLoop=1;jettySize=auto;html=1;entryX=0;entryY=0.5;entryDx=0;entryDy=0;" parent="1" edge="1">
          <mxGeometry relative="1" as="geometry">
            <mxPoint x="160" y="805" as="targetPoint" />
          </mxGeometry>
        </mxCell>
        <mxCell id="_qn-w2AcZbO7UsHYCi19-69" value="" style="edgeStyle=orthogonalEdgeStyle;rounded=0;orthogonalLoop=1;jettySize=auto;html=1;" parent="1" edge="1">
          <mxGeometry relative="1" as="geometry">
            <mxPoint x="30" y="840" as="sourcePoint" />
          </mxGeometry>
        </mxCell>
        <mxCell id="_qn-w2AcZbO7UsHYCi19-71" value="" style="edgeStyle=orthogonalEdgeStyle;rounded=0;orthogonalLoop=1;jettySize=auto;html=1;" parent="1" edge="1">
          <mxGeometry relative="1" as="geometry">
            <mxPoint x="230" y="870" as="targetPoint" />
          </mxGeometry>
        </mxCell>
        <mxCell id="_qn-w2AcZbO7UsHYCi19-73" style="edgeStyle=orthogonalEdgeStyle;rounded=0;orthogonalLoop=1;jettySize=auto;html=1;entryX=0;entryY=0.5;entryDx=0;entryDy=0;" parent="1" edge="1">
          <mxGeometry relative="1" as="geometry">
            <mxPoint x="350" y="805" as="targetPoint" />
          </mxGeometry>
        </mxCell>
        <mxCell id="_qn-w2AcZbO7UsHYCi19-75" value="" style="edgeStyle=orthogonalEdgeStyle;rounded=0;orthogonalLoop=1;jettySize=auto;html=1;" parent="1" edge="1">
          <mxGeometry relative="1" as="geometry">
            <mxPoint x="420" y="840" as="sourcePoint" />
          </mxGeometry>
        </mxCell>
        <mxCell id="_qn-w2AcZbO7UsHYCi19-93" value="" style="edgeStyle=orthogonalEdgeStyle;rounded=0;orthogonalLoop=1;jettySize=auto;html=1;endArrow=open;endFill=0;" parent="1" source="_qn-w2AcZbO7UsHYCi19-80" target="_qn-w2AcZbO7UsHYCi19-82" edge="1">
          <mxGeometry relative="1" as="geometry" />
        </mxCell>
        <mxCell id="_qn-w2AcZbO7UsHYCi19-80" value="Определение структуры данных&amp;nbsp;&lt;div&gt;в файле с расширением .proto&lt;/div&gt;" style="rounded=0;whiteSpace=wrap;html=1;" parent="1" vertex="1">
          <mxGeometry x="225.75" y="270" width="201" height="70" as="geometry" />
        </mxCell>
        <mxCell id="_qn-w2AcZbO7UsHYCi19-102" style="edgeStyle=orthogonalEdgeStyle;rounded=0;orthogonalLoop=1;jettySize=auto;html=1;entryX=0.5;entryY=0;entryDx=0;entryDy=0;endArrow=open;endFill=0;exitX=0.493;exitY=0.854;exitDx=0;exitDy=0;exitPerimeter=0;" parent="1" source="_qn-w2AcZbO7UsHYCi19-82" target="_qn-w2AcZbO7UsHYCi19-83" edge="1">
          <mxGeometry relative="1" as="geometry">
            <Array as="points">
              <mxPoint x="562" y="330" />
              <mxPoint x="562" y="360" />
              <mxPoint x="326" y="360" />
            </Array>
          </mxGeometry>
        </mxCell>
        <mxCell id="_qn-w2AcZbO7UsHYCi19-82" value="Файл .proto" style="shape=document;whiteSpace=wrap;html=1;boundedLbl=1;" parent="1" vertex="1">
          <mxGeometry x="461.75" y="270" width="201" height="70" as="geometry" />
        </mxCell>
        <mxCell id="_qn-w2AcZbO7UsHYCi19-96" value="" style="edgeStyle=orthogonalEdgeStyle;rounded=0;orthogonalLoop=1;jettySize=auto;html=1;endArrow=open;endFill=0;" parent="1" source="_qn-w2AcZbO7UsHYCi19-83" target="_qn-w2AcZbO7UsHYCi19-84" edge="1">
          <mxGeometry relative="1" as="geometry" />
        </mxCell>
        <mxCell id="_qn-w2AcZbO7UsHYCi19-83" value="&lt;meta charset=&quot;utf-8&quot;&gt;&lt;span style=&quot;color: rgb(0, 0, 0); font-family: Helvetica; font-size: 12px; font-style: normal; font-variant-ligatures: normal; font-variant-caps: normal; font-weight: 400; letter-spacing: normal; orphans: 2; text-align: center; text-indent: 0px; text-transform: none; widows: 2; word-spacing: 0px; -webkit-text-stroke-width: 0px; white-space: normal; background-color: rgb(251, 251, 251); text-decoration-thickness: initial; text-decoration-style: initial; text-decoration-color: initial; display: inline !important; float: none;&quot;&gt;Кодогенерация с помощью компилятора protoc&lt;/span&gt;" style="rounded=0;whiteSpace=wrap;html=1;" parent="1" vertex="1">
          <mxGeometry x="225.75" y="380" width="201" height="70" as="geometry" />
        </mxCell>
        <mxCell id="_qn-w2AcZbO7UsHYCi19-103" style="edgeStyle=orthogonalEdgeStyle;rounded=0;orthogonalLoop=1;jettySize=auto;html=1;endArrow=open;endFill=0;exitX=0.5;exitY=0.857;exitDx=0;exitDy=0;exitPerimeter=0;" parent="1" source="_qn-w2AcZbO7UsHYCi19-84" target="_qn-w2AcZbO7UsHYCi19-85" edge="1">
          <mxGeometry relative="1" as="geometry">
            <Array as="points">
              <mxPoint x="562" y="470" />
              <mxPoint x="327" y="470" />
            </Array>
          </mxGeometry>
        </mxCell>
        <mxCell id="_qn-w2AcZbO7UsHYCi19-84" value="Файлы исходного кода" style="shape=document;whiteSpace=wrap;html=1;boundedLbl=1;" parent="1" vertex="1">
          <mxGeometry x="461.75" y="380" width="201" height="70" as="geometry" />
        </mxCell>
        <mxCell id="_qn-w2AcZbO7UsHYCi19-98" value="" style="edgeStyle=orthogonalEdgeStyle;rounded=0;orthogonalLoop=1;jettySize=auto;html=1;endArrow=open;endFill=0;" parent="1" source="_qn-w2AcZbO7UsHYCi19-85" target="_qn-w2AcZbO7UsHYCi19-86" edge="1">
          <mxGeometry relative="1" as="geometry" />
        </mxCell>
        <mxCell id="_qn-w2AcZbO7UsHYCi19-85" value="Компиляция и связывание сгенерированных классов&amp;nbsp;&lt;div&gt;с кодом проекта&lt;br&gt;&lt;/div&gt;" style="rounded=0;whiteSpace=wrap;html=1;" parent="1" vertex="1">
          <mxGeometry x="226.25" y="490" width="201" height="70" as="geometry" />
        </mxCell>
        <mxCell id="_qn-w2AcZbO7UsHYCi19-104" style="edgeStyle=orthogonalEdgeStyle;rounded=0;orthogonalLoop=1;jettySize=auto;html=1;endArrow=open;endFill=0;exitX=0.5;exitY=0.852;exitDx=0;exitDy=0;exitPerimeter=0;" parent="1" source="_qn-w2AcZbO7UsHYCi19-86" target="_qn-w2AcZbO7UsHYCi19-87" edge="1">
          <mxGeometry relative="1" as="geometry">
            <Array as="points">
              <mxPoint x="562" y="580" />
              <mxPoint x="326" y="580" />
            </Array>
          </mxGeometry>
        </mxCell>
        <mxCell id="_qn-w2AcZbO7UsHYCi19-86" value="Объектные файлы описания сообщений" style="shape=document;whiteSpace=wrap;html=1;boundedLbl=1;" parent="1" vertex="1">
          <mxGeometry x="461.75" y="490" width="201" height="70" as="geometry" />
        </mxCell>
        <mxCell id="_qn-w2AcZbO7UsHYCi19-101" value="" style="edgeStyle=orthogonalEdgeStyle;rounded=0;orthogonalLoop=1;jettySize=auto;html=1;endArrow=open;endFill=0;" parent="1" source="_qn-w2AcZbO7UsHYCi19-87" target="_qn-w2AcZbO7UsHYCi19-88" edge="1">
          <mxGeometry relative="1" as="geometry" />
        </mxCell>
        <mxCell id="_qn-w2AcZbO7UsHYCi19-87" value="&lt;div&gt;Использование скомпилированных классов&lt;br&gt;&lt;/div&gt;&lt;div&gt;в программном коде&lt;/div&gt;" style="rounded=0;whiteSpace=wrap;html=1;" parent="1" vertex="1">
          <mxGeometry x="225.25" y="600" width="201" height="70" as="geometry" />
        </mxCell>
        <mxCell id="_qn-w2AcZbO7UsHYCi19-88" value="Конец" style="ellipse;whiteSpace=wrap;html=1;" parent="1" vertex="1">
          <mxGeometry x="226.75" y="690" width="200" height="80" as="geometry" />
        </mxCell>
        <mxCell id="_qn-w2AcZbO7UsHYCi19-105" value="2" style="text;html=1;align=center;verticalAlign=middle;whiteSpace=wrap;rounded=0;fillColor=default;" parent="1" vertex="1">
          <mxGeometry x="269.75" y="265" width="18" height="10" as="geometry" />
        </mxCell>
        <mxCell id="_qn-w2AcZbO7UsHYCi19-106" value="3" style="text;html=1;align=center;verticalAlign=middle;whiteSpace=wrap;rounded=0;fillColor=default;" parent="1" vertex="1">
          <mxGeometry x="500" y="265" width="18" height="10" as="geometry" />
        </mxCell>
        <mxCell id="_qn-w2AcZbO7UsHYCi19-107" value="5" style="text;html=1;align=center;verticalAlign=middle;whiteSpace=wrap;rounded=0;fillColor=default;" parent="1" vertex="1">
          <mxGeometry x="500" y="374" width="18" height="10" as="geometry" />
        </mxCell>
        <mxCell id="_qn-w2AcZbO7UsHYCi19-109" value="7" style="text;html=1;align=center;verticalAlign=middle;whiteSpace=wrap;rounded=0;fillColor=default;" parent="1" vertex="1">
          <mxGeometry x="500" y="484" width="18" height="10" as="geometry" />
        </mxCell>
        <mxCell id="_qn-w2AcZbO7UsHYCi19-110" value="4" style="text;html=1;align=center;verticalAlign=middle;whiteSpace=wrap;rounded=0;fillColor=default;" parent="1" vertex="1">
          <mxGeometry x="269.75" y="374" width="18" height="10" as="geometry" />
        </mxCell>
        <mxCell id="_qn-w2AcZbO7UsHYCi19-111" value="6" style="text;html=1;align=center;verticalAlign=middle;whiteSpace=wrap;rounded=0;fillColor=default;" parent="1" vertex="1">
          <mxGeometry x="269.75" y="484" width="18" height="10" as="geometry" />
        </mxCell>
        <mxCell id="_qn-w2AcZbO7UsHYCi19-112" value="8" style="text;html=1;align=center;verticalAlign=middle;whiteSpace=wrap;rounded=0;fillColor=default;" parent="1" vertex="1">
          <mxGeometry x="269.75" y="595" width="18" height="10" as="geometry" />
        </mxCell>
        <mxCell id="_qn-w2AcZbO7UsHYCi19-113" value="9" style="text;html=1;align=center;verticalAlign=middle;whiteSpace=wrap;rounded=0;fillColor=default;" parent="1" vertex="1">
          <mxGeometry x="269.75" y="690" width="18" height="10" as="geometry" />
        </mxCell>
      </root>
    </mxGraphModel>
  </diagram>
</mxfile>
